<svg width="21" height="27" viewBox="0 0 21 27" fill="none" xmlns="http://www.w3.org/2000/svg">
<path d="M8.76795 6.46002C8.70335 7.29982 8.44496 8.13962 8.05736 8.91481C7.47596 10.2714 6.63616 11.5634 5.73177 12.7262C4.18137 14.7288 4.18137 17.765 5.73177 19.8322C7.73436 22.4808 11.4165 23.0622 14.1297 21.0596C16.7137 19.1862 17.2305 15.3748 15.3571 12.8554C14.2589 11.4342 13.4191 9.94841 12.8377 8.26882C12.6439 7.75202 12.5147 7.17062 12.3855 6.65382C15.8093 7.10602 20.0083 10.2714 20.4605 15.504C20.9127 20.9304 16.9721 25.7754 11.4811 26.2921C6.05476 26.8089 1.20978 22.8684 0.628386 17.442C0.111588 11.6926 4.05217 7.23522 8.76795 6.46002Z" fill="#89C149"/>
<path d="M12.9023 18.5401C11.6749 19.7675 9.73688 19.8321 8.44489 18.7339C7.15289 17.6357 6.82989 15.6977 7.79889 14.3412C9.41389 12.1448 10.1245 9.62537 10.2537 6.91218C10.3183 5.81399 10.1891 4.78039 9.73688 3.74679C9.60768 3.48839 9.47849 3.23 9.28469 2.9716C8.76789 2.261 8.83249 1.4212 9.41389 0.839804C9.99528 0.258407 10.8997 0.258407 11.5457 0.775205C12.1917 1.2274 12.3209 2.1964 11.8687 2.8424C11.2227 3.74679 10.8997 4.71579 10.8997 5.81399C10.7705 8.65638 11.4811 11.305 12.9669 13.7598C13.0961 14.0182 13.3545 14.2766 13.4837 14.535C14.1943 15.8915 13.9359 17.5065 12.9023 18.5401Z" fill="#89C149"/>
</svg>
