<svg width="100" height="35" viewBox="0 0 100 35" fill="none" xmlns="http://www.w3.org/2000/svg">
<path d="M69.768 6.46002C69.7034 7.29982 69.445 8.13962 69.0574 8.91481C68.476 10.2714 67.6362 11.5634 66.7318 12.7262C65.1814 14.7288 65.1814 17.765 66.7318 19.8322C68.7344 22.4808 72.4165 23.0622 75.1297 21.0596C77.7137 19.1862 78.2305 15.3748 76.3571 12.8554C75.2589 11.4342 74.4191 9.94841 73.8377 8.26882C73.6439 7.75202 73.5147 7.17062 73.3855 6.65382C76.8093 7.10602 81.0083 10.2714 81.4605 15.504C81.9127 20.9304 77.9721 25.7754 72.4811 26.2921C67.0548 26.8089 62.2098 22.8684 61.6284 17.442C61.1116 11.6926 65.0522 7.23522 69.768 6.46002Z" fill="#89C149"/>
<path d="M73.9023 18.5401C72.6749 19.7675 70.7369 19.8321 69.4449 18.7339C68.1529 17.6357 67.8299 15.6977 68.7989 14.3412C70.4139 12.1448 71.1245 9.62537 71.2537 6.91218C71.3183 5.81399 71.1891 4.78039 70.7369 3.74679C70.6077 3.48839 70.4785 3.23 70.2847 2.9716C69.7679 2.261 69.8325 1.4212 70.4139 0.839804C70.9953 0.258407 71.8997 0.258407 72.5457 0.775205C73.1917 1.2274 73.3209 2.1964 72.8687 2.8424C72.2227 3.74679 71.8997 4.71579 71.8997 5.81399C71.7705 8.65638 72.4811 11.305 73.9669 13.7598C74.0961 14.0182 74.3545 14.2766 74.4837 14.535C75.1943 15.8915 74.9359 17.5065 73.9023 18.5401Z" fill="#89C149"/>
<path d="M15.1163 17.5064V22.093C15.1163 24.354 13.3076 26.1628 11.0466 26.1628H9.49616V17.4418L0 1.74408H3.68219C5.10338 1.74408 6.45998 2.51928 7.17057 3.74667L12.5324 12.5968L17.8941 3.74667C18.6047 2.51928 19.9613 1.74408 21.3825 1.74408H24.6125L15.1163 17.5064Z" fill="white"/>
<path d="M39.277 18.0234H25.0651C25.5819 20.349 27.5845 21.7702 30.4269 21.7702C31.3959 21.7702 32.2357 21.641 33.0108 21.318C34.5612 20.7366 36.3054 21.1888 37.4036 22.3516L38.0496 23.0622C36.3054 25.0648 33.7214 26.0984 30.2977 26.0984C23.8377 26.0984 19.5741 22.0286 19.5741 16.4084C19.5741 10.7882 23.8377 6.71844 29.5871 6.71844C35.078 6.71844 39.3416 10.4006 39.3416 16.473C39.4062 16.9898 39.3416 17.5712 39.277 18.0234ZM25.0651 14.858H34.3028C33.9152 12.4678 32.1711 10.982 29.7163 10.982C27.1969 10.9174 25.3881 12.4678 25.0651 14.858Z" fill="white"/>
<path d="M60.9819 16.4729C60.9819 22.3515 56.9121 26.1628 51.6149 26.1628C49.0955 26.1628 47.0929 25.3876 45.7363 23.708C45.7363 24.8708 44.7673 25.8398 43.6045 25.8398H40.5684V-6.10352e-05H41.925C44.1859 -6.10352e-05 45.9947 1.80873 45.9947 4.06972V9.1085C47.4159 7.55811 49.2893 6.84751 51.6149 6.84751C56.9121 6.84751 60.9819 10.5943 60.9819 16.4729ZM55.4909 16.4729C55.4909 13.2429 53.4237 11.3049 50.7105 11.3049C47.9973 11.3049 45.9301 13.2429 45.9301 16.4729C45.9301 19.7029 47.9973 21.6409 50.7105 21.6409C53.4237 21.7055 55.4909 19.7029 55.4909 16.4729Z" fill="white"/>
<path d="M92.6357 24.4185L89.7287 20.3487L86.6925 24.4185C85.9173 25.4521 84.6899 26.0981 83.3979 26.0981H79.5219L86.7571 16.6666L79.7803 7.3642H83.7855C85.0775 7.3642 86.3049 8.01019 87.0801 9.04379L89.8579 12.8552L92.7003 9.04379C93.4755 8.01019 94.7029 7.4288 95.9949 7.4288H99.7416L92.7649 16.602L100 26.1627H95.9303C94.6383 26.1627 93.4109 25.5167 92.6357 24.4185Z" fill="white"/>
<path d="M25.3278 31.9291H24.4191V31.6618H26.5572V31.9291H25.6485V34.3345H25.3812V31.9291H25.3278Z" fill="white"/>
<path d="M30.7266 34.0672V34.3345H28.8558V31.6618H30.6732V31.9291H29.123V32.8912H30.5128V33.1051H29.123V34.0672H30.7266Z" fill="white"/>
<path d="M32.8647 32.9981C32.8647 32.1964 33.4527 31.6618 34.2545 31.6618C34.6287 31.6618 35.0028 31.7687 35.2167 32.036L35.0563 32.1964C34.8425 31.9825 34.5752 31.8756 34.2545 31.8756C33.6131 31.8756 33.132 32.3567 33.132 32.9981C33.132 33.6396 33.6131 34.1207 34.2545 34.1207C34.5752 34.1207 34.8425 34.0137 35.0563 33.7999L35.2167 33.9603C35.0028 34.2276 34.6287 34.3345 34.2545 34.3345C33.4527 34.3345 32.8647 33.7465 32.8647 32.9981Z" fill="white"/>
<path d="M39.8668 31.6618V34.3345H39.5996V33.1051H37.9426V34.3345H37.6753V31.6618H37.9426V32.8378H39.5996V31.6618H39.8668Z" fill="white"/>
<path d="M44.731 31.6618V34.3345H44.5172L42.8067 32.1964V34.3345H42.5394V31.6618H42.7532L44.4637 33.7999V31.6618H44.731Z" fill="white"/>
<path d="M47.1896 32.9981C47.1896 32.2498 47.7776 31.6618 48.5794 31.6618C49.3812 31.6618 49.9692 32.2498 49.9692 32.9981C49.9692 33.7999 49.3812 34.3345 48.5794 34.3345C47.7776 34.3345 47.1896 33.7465 47.1896 32.9981ZM49.7019 32.9981C49.7019 32.3567 49.2208 31.8756 48.5794 31.8756C47.938 31.8756 47.4569 32.3567 47.4569 32.9981C47.4569 33.6396 47.938 34.1207 48.5794 34.1207C49.2208 34.0672 49.7019 33.6396 49.7019 32.9981Z" fill="white"/>
<path d="M52.4816 31.6618H52.7488V34.0672H54.2455V34.3345H52.4816V31.6618Z" fill="white"/>
<path d="M56.1699 32.9981C56.1699 32.2498 56.7578 31.6618 57.5596 31.6618C58.3614 31.6618 58.9494 32.2498 58.9494 32.9981C58.9494 33.7999 58.3614 34.3345 57.5596 34.3345C56.7578 34.3345 56.1699 33.7465 56.1699 32.9981ZM58.6821 32.9981C58.6821 32.3567 58.2011 31.8756 57.5596 31.8756C56.9182 31.8756 56.4371 32.3567 56.4371 32.9981C56.4371 33.6396 56.9182 34.1207 57.5596 34.1207C58.2011 34.0672 58.6821 33.6396 58.6821 32.9981Z" fill="white"/>
<path d="M63.3321 32.9981H63.5993V34.0137C63.3321 34.2276 63.0114 34.3345 62.6372 34.3345C61.8354 34.3345 61.2474 33.7465 61.2474 32.9981C61.2474 32.1964 61.8354 31.6618 62.6372 31.6618C63.0648 31.6618 63.3855 31.7687 63.5993 32.036L63.439 32.1964C63.2252 31.9825 62.9579 31.8756 62.6372 31.8756C61.9958 31.8756 61.5147 32.3567 61.5147 32.9981C61.5147 33.6396 61.9958 34.1207 62.6372 34.1207C62.9045 34.1207 63.1183 34.0672 63.3321 33.9068V32.9981Z" fill="white"/>
<path d="M66.2188 31.6618H66.486V34.3345H66.2188V31.6618Z" fill="white"/>
<path d="M71.0299 34.0672V34.3345H69.1591V31.6618H70.9764V31.9291H69.4263V32.8912H70.8161V33.1051H69.4263V34.0672H71.0299Z" fill="white"/>
<path d="M73.3278 34.0138L73.4347 33.8C73.6485 33.9604 73.9692 34.1207 74.2899 34.1207C74.771 34.1207 74.9848 33.9069 74.9848 33.6397C74.9848 32.8913 73.3278 33.3724 73.3278 32.3568C73.3278 31.9826 73.6485 31.6085 74.2899 31.6085C74.6106 31.6085 74.8779 31.7154 75.0917 31.8223L74.9848 32.0361C74.771 31.8757 74.5037 31.8223 74.2364 31.8223C73.7554 31.8223 73.5416 32.0361 73.5416 32.3033C73.5416 33.0517 75.1986 32.5706 75.1986 33.5327C75.1986 33.9069 74.8779 34.2811 74.183 34.2811C73.9157 34.3345 73.4881 34.1742 73.3278 34.0138Z" fill="white"/>
</svg>
